<svg xmlns="http://www.w3.org/2000/svg" xmlns:xlink="http://www.w3.org/1999/xlink" contentStyleType="text/css" data-diagram-type="SEQUENCE" height="649px" preserveAspectRatio="none" style="width:906px;height:649px;background:#FFFFFF;" version="1.1" viewBox="0 0 906 649" width="906px" zoomAndPan="magnify"><defs/><g><g><title>MutantController</title><rect fill="#FFFFFF" height="446.5313" style="stroke:#181818;stroke-width:1;" width="10" x="261.8203" y="112.4297"/></g><g><title>MutantService</title><rect fill="#FFFFFF" height="373.2656" style="stroke:#181818;stroke-width:1;" width="10" x="446.3623" y="141.5625"/></g><g><title>MutantDetector</title><rect fill="#FFFFFF" height="29.1328" style="stroke:#181818;stroke-width:1;" width="10" x="645.7642" y="397.4297"/></g><g><title>DnaRecordRepository</title><rect fill="#FFFFFF" height="53.2656" style="stroke:#181818;stroke-width:1;" width="10" x="801.2329" y="212.8281"/></g><g><title>DnaRecordRepository</title><rect fill="#FFFFFF" height="30" style="stroke:#181818;stroke-width:1;" width="10" x="801.2329" y="455.6953"/></g><rect fill="none" height="324.1328" style="stroke:#000000;stroke-width:1.5;" width="889.5083" x="10" y="227.8281"/><g><title>Cliente</title><rect fill="#000000" fill-opacity="0.00000" height="487.6641" width="8" x="43.5718" y="81.2969"/><line style="stroke:#181818;stroke-width:0.5;stroke-dasharray:5,5;" x1="47" x2="47" y1="81.2969" y2="568.9609"/></g><g><title>MutantController</title><rect fill="#000000" fill-opacity="0.00000" height="487.6641" width="8" x="262.8203" y="81.2969"/><line style="stroke:#181818;stroke-width:0.5;stroke-dasharray:5,5;" x1="266.5425" x2="266.5425" y1="81.2969" y2="568.9609"/></g><g><title>MutantService</title><rect fill="#000000" fill-opacity="0.00000" height="487.6641" width="8" x="447.3623" y="81.2969"/><line style="stroke:#181818;stroke-width:0.5;stroke-dasharray:5,5;" x1="450.8003" x2="450.8003" y1="81.2969" y2="568.9609"/></g><g><title>MutantDetector</title><rect fill="#000000" fill-opacity="0.00000" height="487.6641" width="8" x="646.7642" y="81.2969"/><line style="stroke:#181818;stroke-width:0.5;stroke-dasharray:5,5;" x1="650.5708" x2="650.5708" y1="81.2969" y2="568.9609"/></g><g><title>DnaRecordRepository</title><rect fill="#000000" fill-opacity="0.00000" height="487.6641" width="8" x="802.2329" y="81.2969"/><line style="stroke:#181818;stroke-width:0.5;stroke-dasharray:5,5;" x1="805.9575" x2="805.9575" y1="81.2969" y2="568.9609"/></g><g class="participant participant-head" data-participant="Cliente"><text fill="#000000" font-family="sans-serif" font-size="14" lengthAdjust="spacing" textLength="49.1436" x="20" y="77.9951">Cliente</text><ellipse cx="47.5718" cy="13.5" fill="#E2E2F0" rx="8" ry="8" style="stroke:#181818;stroke-width:0.5;"/><path d="M47.5718,21.5 L47.5718,48.5 M34.5718,29.5 L60.5718,29.5 M47.5718,48.5 L34.5718,63.5 M47.5718,48.5 L60.5718,63.5" fill="none" style="stroke:#181818;stroke-width:0.5;"/></g><g class="participant participant-tail" data-participant="Cliente"><text fill="#000000" font-family="sans-serif" font-size="14" lengthAdjust="spacing" textLength="49.1436" x="20" y="580.9561">Cliente</text><ellipse cx="47.5718" cy="592.7578" fill="#E2E2F0" rx="8" ry="8" style="stroke:#181818;stroke-width:0.5;"/><path d="M47.5718,600.7578 L47.5718,627.7578 M34.5718,608.7578 L60.5718,608.7578 M47.5718,627.7578 L34.5718,642.7578 M47.5718,627.7578 L60.5718,642.7578" fill="none" style="stroke:#181818;stroke-width:0.5;"/></g><g class="participant participant-head" data-participant="Controller"><rect fill="#E2E2F0" height="30.2969" rx="2.5" ry="2.5" style="stroke:#181818;stroke-width:0.5;" width="132.5557" x="200.5425" y="50"/><text fill="#000000" font-family="sans-serif" font-size="14" lengthAdjust="spacing" textLength="118.5557" x="207.5425" y="69.9951">MutantController</text></g><g class="participant participant-tail" data-participant="Controller"><rect fill="#E2E2F0" height="30.2969" rx="2.5" ry="2.5" style="stroke:#181818;stroke-width:0.5;" width="132.5557" x="200.5425" y="567.9609"/><text fill="#000000" font-family="sans-serif" font-size="14" lengthAdjust="spacing" textLength="118.5557" x="207.5425" y="587.9561">MutantController</text></g><g class="participant participant-head" data-participant="Service"><rect fill="#E2E2F0" height="30.2969" rx="2.5" ry="2.5" style="stroke:#181818;stroke-width:0.5;" width="115.124" x="393.8003" y="50"/><text fill="#000000" font-family="sans-serif" font-size="14" lengthAdjust="spacing" textLength="101.124" x="400.8003" y="69.9951">MutantService</text></g><g class="participant participant-tail" data-participant="Service"><rect fill="#E2E2F0" height="30.2969" rx="2.5" ry="2.5" style="stroke:#181818;stroke-width:0.5;" width="115.124" x="393.8003" y="567.9609"/><text fill="#000000" font-family="sans-serif" font-size="14" lengthAdjust="spacing" textLength="101.124" x="400.8003" y="587.9561">MutantService</text></g><g class="participant participant-head" data-participant="Detector"><rect fill="#E2E2F0" height="30.2969" rx="2.5" ry="2.5" style="stroke:#181818;stroke-width:0.5;" width="124.3867" x="588.5708" y="50"/><text fill="#000000" font-family="sans-serif" font-size="14" lengthAdjust="spacing" textLength="110.3867" x="595.5708" y="69.9951">MutantDetector</text></g><g class="participant participant-tail" data-participant="Detector"><rect fill="#E2E2F0" height="30.2969" rx="2.5" ry="2.5" style="stroke:#181818;stroke-width:0.5;" width="124.3867" x="588.5708" y="567.9609"/><text fill="#000000" font-family="sans-serif" font-size="14" lengthAdjust="spacing" textLength="110.3867" x="595.5708" y="587.9561">MutantDetector</text></g><g class="participant participant-head" data-participant="Repository"><rect fill="#E2E2F0" height="30.2969" rx="2.5" ry="2.5" style="stroke:#181818;stroke-width:0.5;" width="166.5508" x="722.9575" y="50"/><text fill="#000000" font-family="sans-serif" font-size="14" lengthAdjust="spacing" textLength="152.5508" x="729.9575" y="69.9951">DnaRecordRepository</text></g><g class="participant participant-tail" data-participant="Repository"><rect fill="#E2E2F0" height="30.2969" rx="2.5" ry="2.5" style="stroke:#181818;stroke-width:0.5;" width="166.5508" x="722.9575" y="567.9609"/><text fill="#000000" font-family="sans-serif" font-size="14" lengthAdjust="spacing" textLength="152.5508" x="729.9575" y="587.9561">DnaRecordRepository</text></g><g><title>MutantController</title><rect fill="#FFFFFF" height="446.5313" style="stroke:#181818;stroke-width:1;" width="10" x="261.8203" y="112.4297"/></g><g><title>MutantService</title><rect fill="#FFFFFF" height="373.2656" style="stroke:#181818;stroke-width:1;" width="10" x="446.3623" y="141.5625"/></g><g><title>MutantDetector</title><rect fill="#FFFFFF" height="29.1328" style="stroke:#181818;stroke-width:1;" width="10" x="645.7642" y="397.4297"/></g><g><title>DnaRecordRepository</title><rect fill="#FFFFFF" height="53.2656" style="stroke:#181818;stroke-width:1;" width="10" x="801.2329" y="212.8281"/></g><g><title>DnaRecordRepository</title><rect fill="#FFFFFF" height="30" style="stroke:#181818;stroke-width:1;" width="10" x="801.2329" y="455.6953"/></g><g class="message" data-participant-1="Cliente" data-participant-2="Controller"><polygon fill="#181818" points="249.8203,108.4297,259.8203,112.4297,249.8203,116.4297,253.8203,112.4297" style="stroke:#181818;stroke-width:1;"/><line style="stroke:#181818;stroke-width:1;" x1="47.5718" x2="255.8203" y1="112.4297" y2="112.4297"/><text fill="#000000" font-family="sans-serif" font-size="13" font-weight="bold" lengthAdjust="spacing" textLength="9.0454" x="54.5718" y="107.3638">1</text><text fill="#000000" font-family="sans-serif" font-size="13" lengthAdjust="spacing" textLength="182.2031" x="67.6172" y="107.3638">POST /mutant (dnaRequest)</text></g><g class="message" data-participant-1="Controller" data-participant-2="Service"><polygon fill="#181818" points="434.3623,137.5625,444.3623,141.5625,434.3623,145.5625,438.3623,141.5625" style="stroke:#181818;stroke-width:1;"/><line style="stroke:#181818;stroke-width:1;" x1="271.8203" x2="440.3623" y1="141.5625" y2="141.5625"/><text fill="#000000" font-family="sans-serif" font-size="13" font-weight="bold" lengthAdjust="spacing" textLength="9.0454" x="278.8203" y="136.4966">2</text><text fill="#000000" font-family="sans-serif" font-size="13" lengthAdjust="spacing" textLength="111.1157" x="291.8657" y="136.4966">analyzeDna(dna)</text></g><g class="message" data-participant-1="Service" data-participant-2="Service"><line style="stroke:#181818;stroke-width:1;" x1="456.3623" x2="498.3623" y1="170.6953" y2="170.6953"/><line style="stroke:#181818;stroke-width:1;" x1="498.3623" x2="498.3623" y1="170.6953" y2="183.6953"/><line style="stroke:#181818;stroke-width:1;" x1="457.3623" x2="498.3623" y1="183.6953" y2="183.6953"/><polygon fill="#181818" points="467.3623,179.6953,457.3623,183.6953,467.3623,187.6953,463.3623,183.6953" style="stroke:#181818;stroke-width:1;"/><text fill="#000000" font-family="sans-serif" font-size="13" font-weight="bold" lengthAdjust="spacing" textLength="9.0454" x="463.3623" y="165.6294">3</text><text fill="#000000" font-family="sans-serif" font-size="13" lengthAdjust="spacing" textLength="152.3564" x="476.4077" y="165.6294">calculateDnaHash(dna)</text></g><g class="message" data-participant-1="Service" data-participant-2="Repository"><polygon fill="#181818" points="789.2329,208.8281,799.2329,212.8281,789.2329,216.8281,793.2329,212.8281" style="stroke:#181818;stroke-width:1;"/><line style="stroke:#181818;stroke-width:1;" x1="456.3623" x2="795.2329" y1="212.8281" y2="212.8281"/><text fill="#000000" font-family="sans-serif" font-size="13" font-weight="bold" lengthAdjust="spacing" textLength="9.0454" x="463.3623" y="207.7622">4</text><text fill="#000000" font-family="sans-serif" font-size="13" lengthAdjust="spacing" textLength="141.6226" x="476.4077" y="207.7622">findByDnaHash(hash)</text></g><path d="M10,227.8281 L74.4429,227.8281 L74.4429,234.9609 L64.4429,244.9609 L10,244.9609 L10,227.8281" fill="#EEEEEE" style="stroke:#000000;stroke-width:1.5;"/><rect fill="none" height="324.1328" style="stroke:#000000;stroke-width:1.5;" width="889.5083" x="10" y="227.8281"/><text fill="#000000" font-family="sans-serif" font-size="13" font-weight="bold" lengthAdjust="spacing" textLength="19.4429" x="25" y="240.895">alt</text><text fill="#000000" font-family="sans-serif" font-size="11" font-weight="bold" lengthAdjust="spacing" textLength="146.3892" x="89.4429" y="240.0386">[ADN ya existe (cache)]</text><g class="message" data-participant-1="Repository" data-participant-2="Service"><polygon fill="#181818" points="467.3623,262.0938,457.3623,266.0938,467.3623,270.0938,463.3623,266.0938" style="stroke:#181818;stroke-width:1;"/><line style="stroke:#181818;stroke-width:1;stroke-dasharray:2,2;" x1="461.3623" x2="805.2329" y1="266.0938" y2="266.0938"/><text fill="#000000" font-family="sans-serif" font-size="13" font-weight="bold" lengthAdjust="spacing" textLength="9.0454" x="473.3623" y="261.0278">5</text><text fill="#000000" font-family="sans-serif" font-size="13" lengthAdjust="spacing" textLength="71.9443" x="486.4077" y="261.0278">DnaRecord</text></g><g class="message" data-participant-1="Service" data-participant-2="Controller"><polygon fill="#181818" points="282.8203,291.2266,272.8203,295.2266,282.8203,299.2266,278.8203,295.2266" style="stroke:#181818;stroke-width:1;"/><line style="stroke:#181818;stroke-width:1;stroke-dasharray:2,2;" x1="276.8203" x2="445.3623" y1="295.2266" y2="295.2266"/><text fill="#000000" font-family="sans-serif" font-size="13" font-weight="bold" lengthAdjust="spacing" textLength="9.0454" x="288.8203" y="290.1606">6</text><text fill="#000000" font-family="sans-serif" font-size="13" lengthAdjust="spacing" textLength="137.4966" x="301.8657" y="290.1606">resultado (true/false)</text></g><g class="message" data-participant-1="Controller" data-participant-2="Cliente"><polygon fill="#181818" points="58.5718,320.3594,48.5718,324.3594,58.5718,328.3594,54.5718,324.3594" style="stroke:#181818;stroke-width:1;"/><line style="stroke:#181818;stroke-width:1;stroke-dasharray:2,2;" x1="52.5718" x2="260.8203" y1="324.3594" y2="324.3594"/><text fill="#000000" font-family="sans-serif" font-size="13" font-weight="bold" lengthAdjust="spacing" textLength="9.0454" x="64.5718" y="319.2935">7</text><text fill="#000000" font-family="sans-serif" font-size="13" lengthAdjust="spacing" textLength="154.6733" x="77.6172" y="319.2935">200 OK / 403 Forbidden</text></g><line style="stroke:#000000;stroke-width:1;stroke-dasharray:2,2;" x1="10" x2="899.5083" y1="333.3594" y2="333.3594"/><text fill="#000000" font-family="sans-serif" font-size="11" font-weight="bold" lengthAdjust="spacing" textLength="78.5845" x="15" y="343.5698">[ADN nuevo]</text><g class="message" data-participant-1="Repository" data-participant-2="Service"><polygon fill="#181818" points="467.3623,364.2969,457.3623,368.2969,467.3623,372.2969,463.3623,368.2969" style="stroke:#181818;stroke-width:1;"/><line style="stroke:#181818;stroke-width:1;stroke-dasharray:2,2;" x1="461.3623" x2="805.2329" y1="368.2969" y2="368.2969"/><text fill="#000000" font-family="sans-serif" font-size="13" font-weight="bold" lengthAdjust="spacing" textLength="9.0454" x="473.3623" y="363.231">8</text><text fill="#000000" font-family="sans-serif" font-size="13" lengthAdjust="spacing" textLength="100.8008" x="486.4077" y="363.231">Optional.empty</text></g><g class="message" data-participant-1="Service" data-participant-2="Detector"><polygon fill="#181818" points="633.7642,393.4297,643.7642,397.4297,633.7642,401.4297,637.7642,397.4297" style="stroke:#181818;stroke-width:1;"/><line style="stroke:#181818;stroke-width:1;" x1="456.3623" x2="639.7642" y1="397.4297" y2="397.4297"/><text fill="#000000" font-family="sans-serif" font-size="13" font-weight="bold" lengthAdjust="spacing" textLength="9.0454" x="463.3623" y="392.3638">9</text><text fill="#000000" font-family="sans-serif" font-size="13" lengthAdjust="spacing" textLength="90.8413" x="476.4077" y="392.3638">isMutant(dna)</text></g><g class="message" data-participant-1="Detector" data-participant-2="Service"><polygon fill="#181818" points="467.3623,422.5625,457.3623,426.5625,467.3623,430.5625,463.3623,426.5625" style="stroke:#181818;stroke-width:1;"/><line style="stroke:#181818;stroke-width:1;stroke-dasharray:2,2;" x1="461.3623" x2="649.7642" y1="426.5625" y2="426.5625"/><text fill="#000000" font-family="sans-serif" font-size="13" font-weight="bold" lengthAdjust="spacing" textLength="18.0908" x="473.3623" y="421.4966">10</text><text fill="#000000" font-family="sans-serif" font-size="13" lengthAdjust="spacing" textLength="51.9746" x="495.4531" y="421.4966">boolean</text></g><g class="message" data-participant-1="Service" data-participant-2="Repository"><polygon fill="#181818" points="789.2329,451.6953,799.2329,455.6953,789.2329,459.6953,793.2329,455.6953" style="stroke:#181818;stroke-width:1;"/><line style="stroke:#181818;stroke-width:1;" x1="456.3623" x2="795.2329" y1="455.6953" y2="455.6953"/><text fill="#000000" font-family="sans-serif" font-size="13" font-weight="bold" lengthAdjust="spacing" textLength="18.0908" x="463.3623" y="450.6294">11</text><text fill="#000000" font-family="sans-serif" font-size="13" lengthAdjust="spacing" textLength="112.5186" x="485.4531" y="450.6294">save(DnaRecord)</text></g><g class="message" data-participant-1="Service" data-participant-2="Controller"><polygon fill="#181818" points="282.8203,510.8281,272.8203,514.8281,282.8203,518.8281,278.8203,514.8281" style="stroke:#181818;stroke-width:1;"/><line style="stroke:#181818;stroke-width:1;stroke-dasharray:2,2;" x1="276.8203" x2="450.3623" y1="514.8281" y2="514.8281"/><text fill="#000000" font-family="sans-serif" font-size="13" font-weight="bold" lengthAdjust="spacing" textLength="18.0908" x="288.8203" y="509.7622">12</text><text fill="#000000" font-family="sans-serif" font-size="13" lengthAdjust="spacing" textLength="61.2358" x="310.9111" y="509.7622">resultado</text></g><g class="message" data-participant-1="Controller" data-participant-2="Cliente"><polygon fill="#181818" points="58.5718,539.9609,48.5718,543.9609,58.5718,547.9609,54.5718,543.9609" style="stroke:#181818;stroke-width:1;"/><line style="stroke:#181818;stroke-width:1;stroke-dasharray:2,2;" x1="52.5718" x2="260.8203" y1="543.9609" y2="543.9609"/><text fill="#000000" font-family="sans-serif" font-size="13" font-weight="bold" lengthAdjust="spacing" textLength="18.0908" x="64.5718" y="538.895">13</text><text fill="#000000" font-family="sans-serif" font-size="13" lengthAdjust="spacing" textLength="154.6733" x="86.6626" y="538.895">200 OK / 403 Forbidden</text></g><!--SRC=[dLBBJiCm4BpxArPSA0Te1PnoG2gj41A2ei8FREEjQicnWnyHuM_u5duCEqaJDweGa4DYnpCxivv5xxJonOOCOvWxRM0X1Ib7h4JZH2vAL0vE7hqBtuLMpcWfoPm0MXYsny0lP2gHKuFiriTWIt8KTHlSVdC8N2fSKwuDNrEfhGZdTOCUjenrhk7y9h6LmVFgvHMcHQC44nuBlNcoxYmsAoeCZAGBDgnZeSvr1gXGrXyKVCGI2NVV5-iM1wmSPUvbW0NUFTfToqsXGmCPR8NYj_KUkWklH2Vj5AM3-V89QWHw5pQSJdBCTtJ683m34ivJC_qTDYXEnqh7a-RLMnpTfY7hfKEkOUACf-aMfUrqqvkBh3QE32vdCrWzm1IkPrTmfyr6S4wACGhCfWtbgT8_Mb-LJkYGm0KLfQl_vF-cdwWCX6q7heqXmleQ_TZ5l_lDeOcDrf9GZTLxvbWtZTPYHPC-W97soF_HpjgkJc5kVI4ARS6ha4KuKHegBJYOhyzIX5WuoKQD_Ix6iM8_plz8b1HdBAarqBy1]--></g></svg>