<svg xmlns="http://www.w3.org/2000/svg" xmlns:xlink="http://www.w3.org/1999/xlink" contentStyleType="text/css" data-diagram-type="SEQUENCE" height="457px" preserveAspectRatio="none" style="width:598px;height:457px;background:#FFFFFF;" version="1.1" viewBox="0 0 598 457" width="598px" zoomAndPan="magnify"><defs/><g><g><title>MutantController</title><rect fill="#FFFFFF" height="246.0625" style="stroke:#181818;stroke-width:1;" width="10" x="168.52" y="112.4297"/></g><g><title>StatsService</title><rect fill="#FFFFFF" height="187.7969" style="stroke:#181818;stroke-width:1;" width="10" x="311.7705" y="141.5625"/></g><g><title>DnaRecordRepository</title><rect fill="#FFFFFF" height="29.1328" style="stroke:#181818;stroke-width:1;" width="10" x="504.6362" y="170.6953"/></g><g><title>DnaRecordRepository</title><rect fill="#FFFFFF" height="29.1328" style="stroke:#181818;stroke-width:1;" width="10" x="504.6362" y="228.9609"/></g><g><title>Cliente</title><rect fill="#000000" fill-opacity="0.00000" height="295.1953" width="8" x="28.5718" y="81.2969"/><line style="stroke:#181818;stroke-width:0.5;stroke-dasharray:5,5;" x1="32" x2="32" y1="81.2969" y2="376.4922"/></g><g><title>MutantController</title><rect fill="#000000" fill-opacity="0.00000" height="295.1953" width="8" x="169.52" y="81.2969"/><line style="stroke:#181818;stroke-width:0.5;stroke-dasharray:5,5;" x1="173.2422" x2="173.2422" y1="81.2969" y2="376.4922"/></g><g><title>StatsService</title><rect fill="#000000" fill-opacity="0.00000" height="295.1953" width="8" x="312.7705" y="81.2969"/><line style="stroke:#181818;stroke-width:0.5;stroke-dasharray:5,5;" x1="316.0308" x2="316.0308" y1="81.2969" y2="376.4922"/></g><g><title>DnaRecordRepository</title><rect fill="#000000" fill-opacity="0.00000" height="295.1953" width="8" x="505.6362" y="81.2969"/><line style="stroke:#181818;stroke-width:0.5;stroke-dasharray:5,5;" x1="509.3608" x2="509.3608" y1="81.2969" y2="376.4922"/></g><g class="participant participant-head" data-participant="Cliente"><text fill="#000000" font-family="sans-serif" font-size="14" lengthAdjust="spacing" textLength="49.1436" x="5" y="77.9951">Cliente</text><ellipse cx="32.5718" cy="13.5" fill="#E2E2F0" rx="8" ry="8" style="stroke:#181818;stroke-width:0.5;"/><path d="M32.5718,21.5 L32.5718,48.5 M19.5718,29.5 L45.5718,29.5 M32.5718,48.5 L19.5718,63.5 M32.5718,48.5 L45.5718,63.5" fill="none" style="stroke:#181818;stroke-width:0.5;"/></g><g class="participant participant-tail" data-participant="Cliente"><text fill="#000000" font-family="sans-serif" font-size="14" lengthAdjust="spacing" textLength="49.1436" x="5" y="388.4873">Cliente</text><ellipse cx="32.5718" cy="400.2891" fill="#E2E2F0" rx="8" ry="8" style="stroke:#181818;stroke-width:0.5;"/><path d="M32.5718,408.2891 L32.5718,435.2891 M19.5718,416.2891 L45.5718,416.2891 M32.5718,435.2891 L19.5718,450.2891 M32.5718,435.2891 L45.5718,450.2891" fill="none" style="stroke:#181818;stroke-width:0.5;"/></g><g class="participant participant-head" data-participant="Controller"><rect fill="#E2E2F0" height="30.2969" rx="2.5" ry="2.5" style="stroke:#181818;stroke-width:0.5;" width="132.5557" x="107.2422" y="50"/><text fill="#000000" font-family="sans-serif" font-size="14" lengthAdjust="spacing" textLength="118.5557" x="114.2422" y="69.9951">MutantController</text></g><g class="participant participant-tail" data-participant="Controller"><rect fill="#E2E2F0" height="30.2969" rx="2.5" ry="2.5" style="stroke:#181818;stroke-width:0.5;" width="132.5557" x="107.2422" y="375.4922"/><text fill="#000000" font-family="sans-serif" font-size="14" lengthAdjust="spacing" textLength="118.5557" x="114.2422" y="395.4873">MutantController</text></g><g class="participant participant-head" data-participant="Service"><rect fill="#E2E2F0" height="30.2969" rx="2.5" ry="2.5" style="stroke:#181818;stroke-width:0.5;" width="101.4795" x="266.0308" y="50"/><text fill="#000000" font-family="sans-serif" font-size="14" lengthAdjust="spacing" textLength="87.4795" x="273.0308" y="69.9951">StatsService</text></g><g class="participant participant-tail" data-participant="Service"><rect fill="#E2E2F0" height="30.2969" rx="2.5" ry="2.5" style="stroke:#181818;stroke-width:0.5;" width="101.4795" x="266.0308" y="375.4922"/><text fill="#000000" font-family="sans-serif" font-size="14" lengthAdjust="spacing" textLength="87.4795" x="273.0308" y="395.4873">StatsService</text></g><g class="participant participant-head" data-participant="Repository"><rect fill="#E2E2F0" height="30.2969" rx="2.5" ry="2.5" style="stroke:#181818;stroke-width:0.5;" width="166.5508" x="426.3608" y="50"/><text fill="#000000" font-family="sans-serif" font-size="14" lengthAdjust="spacing" textLength="152.5508" x="433.3608" y="69.9951">DnaRecordRepository</text></g><g class="participant participant-tail" data-participant="Repository"><rect fill="#E2E2F0" height="30.2969" rx="2.5" ry="2.5" style="stroke:#181818;stroke-width:0.5;" width="166.5508" x="426.3608" y="375.4922"/><text fill="#000000" font-family="sans-serif" font-size="14" lengthAdjust="spacing" textLength="152.5508" x="433.3608" y="395.4873">DnaRecordRepository</text></g><g><title>MutantController</title><rect fill="#FFFFFF" height="246.0625" style="stroke:#181818;stroke-width:1;" width="10" x="168.52" y="112.4297"/></g><g><title>StatsService</title><rect fill="#FFFFFF" height="187.7969" style="stroke:#181818;stroke-width:1;" width="10" x="311.7705" y="141.5625"/></g><g><title>DnaRecordRepository</title><rect fill="#FFFFFF" height="29.1328" style="stroke:#181818;stroke-width:1;" width="10" x="504.6362" y="170.6953"/></g><g><title>DnaRecordRepository</title><rect fill="#FFFFFF" height="29.1328" style="stroke:#181818;stroke-width:1;" width="10" x="504.6362" y="228.9609"/></g><g class="message" data-participant-1="Cliente" data-participant-2="Controller"><polygon fill="#181818" points="156.52,108.4297,166.52,112.4297,156.52,116.4297,160.52,112.4297" style="stroke:#181818;stroke-width:1;"/><line style="stroke:#181818;stroke-width:1;" x1="32.5718" x2="162.52" y1="112.4297" y2="112.4297"/><text fill="#000000" font-family="sans-serif" font-size="13" font-weight="bold" lengthAdjust="spacing" textLength="9.0454" x="39.5718" y="107.3638">1</text><text fill="#000000" font-family="sans-serif" font-size="13" lengthAdjust="spacing" textLength="66.4473" x="52.6172" y="107.3638">GET /stats</text></g><g class="message" data-participant-1="Controller" data-participant-2="Service"><polygon fill="#181818" points="299.7705,137.5625,309.7705,141.5625,299.7705,145.5625,303.7705,141.5625" style="stroke:#181818;stroke-width:1;"/><line style="stroke:#181818;stroke-width:1;" x1="178.52" x2="305.7705" y1="141.5625" y2="141.5625"/><text fill="#000000" font-family="sans-serif" font-size="13" font-weight="bold" lengthAdjust="spacing" textLength="9.0454" x="185.52" y="136.4966">2</text><text fill="#000000" font-family="sans-serif" font-size="13" lengthAdjust="spacing" textLength="64.6763" x="198.5654" y="136.4966">getStats()</text></g><g class="message" data-participant-1="Service" data-participant-2="Repository"><polygon fill="#181818" points="492.6362,166.6953,502.6362,170.6953,492.6362,174.6953,496.6362,170.6953" style="stroke:#181818;stroke-width:1;"/><line style="stroke:#181818;stroke-width:1;" x1="321.7705" x2="498.6362" y1="170.6953" y2="170.6953"/><text fill="#000000" font-family="sans-serif" font-size="13" font-weight="bold" lengthAdjust="spacing" textLength="9.0454" x="328.7705" y="165.6294">3</text><text fill="#000000" font-family="sans-serif" font-size="13" lengthAdjust="spacing" textLength="146.5737" x="341.8159" y="165.6294">countByIsMutant(true)</text></g><g class="message" data-participant-1="Repository" data-participant-2="Service"><polygon fill="#181818" points="332.7705,195.8281,322.7705,199.8281,332.7705,203.8281,328.7705,199.8281" style="stroke:#181818;stroke-width:1;"/><line style="stroke:#181818;stroke-width:1;stroke-dasharray:2,2;" x1="326.7705" x2="508.6362" y1="199.8281" y2="199.8281"/><text fill="#000000" font-family="sans-serif" font-size="13" font-weight="bold" lengthAdjust="spacing" textLength="9.0454" x="338.7705" y="194.7622">4</text><text fill="#000000" font-family="sans-serif" font-size="13" lengthAdjust="spacing" textLength="90.3525" x="351.8159" y="194.7622">totalMutantes</text></g><g class="message" data-participant-1="Service" data-participant-2="Repository"><polygon fill="#181818" points="492.6362,224.9609,502.6362,228.9609,492.6362,232.9609,496.6362,228.9609" style="stroke:#181818;stroke-width:1;"/><line style="stroke:#181818;stroke-width:1;" x1="321.7705" x2="498.6362" y1="228.9609" y2="228.9609"/><text fill="#000000" font-family="sans-serif" font-size="13" font-weight="bold" lengthAdjust="spacing" textLength="9.0454" x="328.7705" y="223.895">5</text><text fill="#000000" font-family="sans-serif" font-size="13" lengthAdjust="spacing" textLength="150.8203" x="341.8159" y="223.895">countByIsMutant(false)</text></g><g class="message" data-participant-1="Repository" data-participant-2="Service"><polygon fill="#181818" points="332.7705,254.0938,322.7705,258.0938,332.7705,262.0938,328.7705,258.0938" style="stroke:#181818;stroke-width:1;"/><line style="stroke:#181818;stroke-width:1;stroke-dasharray:2,2;" x1="326.7705" x2="508.6362" y1="258.0938" y2="258.0938"/><text fill="#000000" font-family="sans-serif" font-size="13" font-weight="bold" lengthAdjust="spacing" textLength="9.0454" x="338.7705" y="253.0278">6</text><text fill="#000000" font-family="sans-serif" font-size="13" lengthAdjust="spacing" textLength="91.3364" x="351.8159" y="253.0278">totalHumanos</text></g><g class="message" data-participant-1="Service" data-participant-2="Service"><line style="stroke:#181818;stroke-width:1;" x1="321.7705" x2="363.7705" y1="287.2266" y2="287.2266"/><line style="stroke:#181818;stroke-width:1;" x1="363.7705" x2="363.7705" y1="287.2266" y2="300.2266"/><line style="stroke:#181818;stroke-width:1;" x1="322.7705" x2="363.7705" y1="300.2266" y2="300.2266"/><polygon fill="#181818" points="332.7705,296.2266,322.7705,300.2266,332.7705,304.2266,328.7705,300.2266" style="stroke:#181818;stroke-width:1;"/><text fill="#000000" font-family="sans-serif" font-size="13" font-weight="bold" lengthAdjust="spacing" textLength="9.0454" x="328.7705" y="282.1606">7</text><text fill="#000000" font-family="sans-serif" font-size="13" lengthAdjust="spacing" textLength="85.1411" x="341.8159" y="282.1606">calcular ratio</text></g><g class="message" data-participant-1="Service" data-participant-2="Controller"><polygon fill="#181818" points="189.52,325.3594,179.52,329.3594,189.52,333.3594,185.52,329.3594" style="stroke:#181818;stroke-width:1;"/><line style="stroke:#181818;stroke-width:1;stroke-dasharray:2,2;" x1="183.52" x2="315.7705" y1="329.3594" y2="329.3594"/><text fill="#000000" font-family="sans-serif" font-size="13" font-weight="bold" lengthAdjust="spacing" textLength="9.0454" x="195.52" y="324.2935">8</text><text fill="#000000" font-family="sans-serif" font-size="13" lengthAdjust="spacing" textLength="96.2051" x="208.5654" y="324.2935">StatsResponse</text></g><g class="message" data-participant-1="Controller" data-participant-2="Cliente"><polygon fill="#181818" points="43.5718,354.4922,33.5718,358.4922,43.5718,362.4922,39.5718,358.4922" style="stroke:#181818;stroke-width:1;"/><line style="stroke:#181818;stroke-width:1;stroke-dasharray:2,2;" x1="37.5718" x2="172.52" y1="358.4922" y2="358.4922"/><text fill="#000000" font-family="sans-serif" font-size="13" font-weight="bold" lengthAdjust="spacing" textLength="9.0454" x="49.5718" y="353.4263">9</text><text fill="#000000" font-family="sans-serif" font-size="13" lengthAdjust="spacing" textLength="98.9028" x="62.6172" y="353.4263">200 OK + JSON</text></g><!--SRC=[dP7DIaCn44RtUOgXgugK5fTtuS8gLaKBz_e2OpfA8CrS9fD2tzxxPvEAY-8g4_WEvsC6at98-myIOz0g2wozew1aMXHrrhKO56QlIRjtpK65lIUP0KR8t_DmewYn8JauIqDmcizJzm5hiYoxcbgEhbCVXt3-6ZDrWSLj8QlWyU4Tbh6tz9tT0Rj8KSRakISdUmLVf4Er-LN6VggPQUY1tA02oodetV4fZXkOgoGgyA9i7c5HMfKL_KXJD3lwYxtK_ea-_aU_INiCV8dzn5dqDdaK45J7HURNBOQDrXHR3f5AmMcpvJLwUBnf1JUh5MnVu1gUc-rRIMRW6m00]--></g></svg>